<mxfile host="app.diagrams.net" modified="2021-10-18T16:15:46.285Z" agent="5.0 (Windows)" etag="__cadi-UkLQbX2pl6Xi6" version="15.5.4" type="github">
  <diagram id="rYvf_MqBUYe4Vfqe7kUO" name="Page-1">
    <mxGraphModel dx="1997" dy="1017" grid="1" gridSize="10" guides="1" tooltips="1" connect="1" arrows="1" fold="1" page="1" pageScale="1" pageWidth="827" pageHeight="1169" math="0" shadow="0">
      <root>
        <mxCell id="0" />
        <mxCell id="1" parent="0" />
        <mxCell id="qNwU-4RBRCw6TbDbOzhR-5" value="IBS" style="swimlane;childLayout=stackLayout;resizeParent=1;resizeParentMax=0;horizontal=1;startSize=20;horizontalStack=0;" vertex="1" parent="1">
          <mxGeometry y="20" width="1630" height="400" as="geometry">
            <mxRectangle x="160" y="140" width="60" height="20" as="alternateBounds" />
          </mxGeometry>
        </mxCell>
        <mxCell id="qNwU-4RBRCw6TbDbOzhR-6" value="Teacher" style="swimlane;startSize=20;horizontal=0;" vertex="1" parent="qNwU-4RBRCw6TbDbOzhR-5">
          <mxGeometry y="20" width="1630" height="120" as="geometry" />
        </mxCell>
        <mxCell id="qNwU-4RBRCw6TbDbOzhR-11" style="edgeStyle=orthogonalEdgeStyle;rounded=0;orthogonalLoop=1;jettySize=auto;html=1;exitX=1;exitY=0.5;exitDx=0;exitDy=0;" edge="1" parent="qNwU-4RBRCw6TbDbOzhR-6" source="qNwU-4RBRCw6TbDbOzhR-9" target="qNwU-4RBRCw6TbDbOzhR-10">
          <mxGeometry relative="1" as="geometry" />
        </mxCell>
        <mxCell id="qNwU-4RBRCw6TbDbOzhR-9" value="" style="ellipse;whiteSpace=wrap;html=1;aspect=fixed;" vertex="1" parent="qNwU-4RBRCw6TbDbOzhR-6">
          <mxGeometry x="40" y="20" width="50" height="50" as="geometry" />
        </mxCell>
        <mxCell id="qNwU-4RBRCw6TbDbOzhR-10" value="&lt;h5&gt;&lt;b&gt;gives&amp;nbsp; the&amp;nbsp; printed&amp;nbsp; test sheet to&amp;nbsp; the&amp;nbsp; student&lt;/b&gt;&lt;/h5&gt;" style="rounded=1;whiteSpace=wrap;html=1;" vertex="1" parent="qNwU-4RBRCw6TbDbOzhR-6">
          <mxGeometry x="130" y="20" width="110" height="50" as="geometry" />
        </mxCell>
        <mxCell id="qNwU-4RBRCw6TbDbOzhR-31" value="&lt;h3&gt;answer the question&lt;/h3&gt;" style="rounded=1;whiteSpace=wrap;html=1;fontColor=none;" vertex="1" parent="qNwU-4RBRCw6TbDbOzhR-6">
          <mxGeometry x="1060" y="20" width="120" height="60" as="geometry" />
        </mxCell>
        <mxCell id="qNwU-4RBRCw6TbDbOzhR-45" style="edgeStyle=orthogonalEdgeStyle;rounded=0;orthogonalLoop=1;jettySize=auto;html=1;exitX=1;exitY=0.5;exitDx=0;exitDy=0;entryX=0;entryY=0.5;entryDx=0;entryDy=0;entryPerimeter=0;fontColor=none;" edge="1" parent="qNwU-4RBRCw6TbDbOzhR-6" source="qNwU-4RBRCw6TbDbOzhR-42" target="qNwU-4RBRCw6TbDbOzhR-44">
          <mxGeometry relative="1" as="geometry" />
        </mxCell>
        <mxCell id="qNwU-4RBRCw6TbDbOzhR-42" value="&lt;h3&gt;&amp;nbsp;hands over the test sheet to the teacher&lt;/h3&gt;" style="rounded=1;whiteSpace=wrap;html=1;fontColor=none;" vertex="1" parent="qNwU-4RBRCw6TbDbOzhR-6">
          <mxGeometry x="1370" y="40" width="120" height="60" as="geometry" />
        </mxCell>
        <mxCell id="qNwU-4RBRCw6TbDbOzhR-44" value="" style="points=[[0.145,0.145,0],[0.5,0,0],[0.855,0.145,0],[1,0.5,0],[0.855,0.855,0],[0.5,1,0],[0.145,0.855,0],[0,0.5,0]];shape=mxgraph.bpmn.event;html=1;verticalLabelPosition=bottom;labelBackgroundColor=#ffffff;verticalAlign=top;align=center;perimeter=ellipsePerimeter;outlineConnect=0;aspect=fixed;outline=end;symbol=terminate2;fontColor=none;" vertex="1" parent="qNwU-4RBRCw6TbDbOzhR-6">
          <mxGeometry x="1560" y="45" width="50" height="50" as="geometry" />
        </mxCell>
        <mxCell id="qNwU-4RBRCw6TbDbOzhR-7" value="Student" style="swimlane;startSize=20;horizontal=0;" vertex="1" parent="qNwU-4RBRCw6TbDbOzhR-5">
          <mxGeometry y="140" width="1630" height="260" as="geometry" />
        </mxCell>
        <mxCell id="qNwU-4RBRCw6TbDbOzhR-12" value="&lt;h4&gt;writes&amp;nbsp; his/her name to&amp;nbsp; the sheet&lt;/h4&gt;" style="rounded=1;whiteSpace=wrap;html=1;" vertex="1" parent="qNwU-4RBRCw6TbDbOzhR-7">
          <mxGeometry x="50" y="40" width="120" height="40" as="geometry" />
        </mxCell>
        <mxCell id="qNwU-4RBRCw6TbDbOzhR-15" value="&lt;h4&gt;saves the Excel test template&lt;/h4&gt;" style="rounded=1;whiteSpace=wrap;html=1;fontColor=none;" vertex="1" parent="qNwU-4RBRCw6TbDbOzhR-7">
          <mxGeometry x="230" y="40" width="110" height="40" as="geometry" />
        </mxCell>
        <mxCell id="qNwU-4RBRCw6TbDbOzhR-28" value="&lt;h4&gt;&amp;nbsp;writes&amp;nbsp; the&amp;nbsp; test&lt;/h4&gt;" style="rounded=1;whiteSpace=wrap;html=1;fontColor=none;" vertex="1" parent="qNwU-4RBRCw6TbDbOzhR-7">
          <mxGeometry x="970" y="10" width="100" height="40" as="geometry" />
        </mxCell>
        <mxCell id="qNwU-4RBRCw6TbDbOzhR-29" value="&lt;h4&gt;student&amp;nbsp; asks questions&amp;nbsp; from&amp;nbsp; the&amp;nbsp; teacher&lt;/h4&gt;" style="rounded=1;whiteSpace=wrap;html=1;fontColor=none;" vertex="1" parent="qNwU-4RBRCw6TbDbOzhR-7">
          <mxGeometry x="1050" y="60" width="110" height="50" as="geometry" />
        </mxCell>
        <mxCell id="qNwU-4RBRCw6TbDbOzhR-40" style="edgeStyle=orthogonalEdgeStyle;rounded=0;orthogonalLoop=1;jettySize=auto;html=1;exitX=0.5;exitY=1;exitDx=0;exitDy=0;entryX=0.5;entryY=0;entryDx=0;entryDy=0;fontColor=none;" edge="1" parent="qNwU-4RBRCw6TbDbOzhR-7" source="qNwU-4RBRCw6TbDbOzhR-34" target="qNwU-4RBRCw6TbDbOzhR-39">
          <mxGeometry relative="1" as="geometry" />
        </mxCell>
        <mxCell id="qNwU-4RBRCw6TbDbOzhR-34" value="&lt;h4&gt;getting&amp;nbsp; answers&amp;nbsp; from&amp;nbsp; the&amp;nbsp; teacher &lt;/h4&gt;" style="rounded=1;whiteSpace=wrap;html=1;fontColor=none;" vertex="1" parent="qNwU-4RBRCw6TbDbOzhR-7">
          <mxGeometry x="1190" y="10" width="120" height="60" as="geometry" />
        </mxCell>
        <mxCell id="qNwU-4RBRCw6TbDbOzhR-36" value="&lt;h3&gt;&lt;b&gt;upload file&lt;/b&gt;&lt;/h3&gt;" style="rounded=1;whiteSpace=wrap;html=1;fontColor=none;" vertex="1" parent="qNwU-4RBRCw6TbDbOzhR-7">
          <mxGeometry x="1190" y="180" width="120" height="60" as="geometry" />
        </mxCell>
        <mxCell id="qNwU-4RBRCw6TbDbOzhR-41" style="edgeStyle=orthogonalEdgeStyle;rounded=0;orthogonalLoop=1;jettySize=auto;html=1;exitX=0.5;exitY=1;exitDx=0;exitDy=0;entryX=0.5;entryY=0;entryDx=0;entryDy=0;fontColor=none;" edge="1" parent="qNwU-4RBRCw6TbDbOzhR-7" source="qNwU-4RBRCw6TbDbOzhR-39" target="qNwU-4RBRCw6TbDbOzhR-36">
          <mxGeometry relative="1" as="geometry" />
        </mxCell>
        <mxCell id="qNwU-4RBRCw6TbDbOzhR-39" value="&lt;h3&gt;completes the test&lt;/h3&gt;" style="rounded=1;whiteSpace=wrap;html=1;fontColor=none;" vertex="1" parent="qNwU-4RBRCw6TbDbOzhR-7">
          <mxGeometry x="1190" y="100" width="120" height="60" as="geometry" />
        </mxCell>
        <mxCell id="qNwU-4RBRCw6TbDbOzhR-13" style="edgeStyle=orthogonalEdgeStyle;rounded=0;orthogonalLoop=1;jettySize=auto;html=1;exitX=0.25;exitY=1;exitDx=0;exitDy=0;" edge="1" parent="qNwU-4RBRCw6TbDbOzhR-5" source="qNwU-4RBRCw6TbDbOzhR-10" target="qNwU-4RBRCw6TbDbOzhR-12">
          <mxGeometry relative="1" as="geometry" />
        </mxCell>
        <mxCell id="qNwU-4RBRCw6TbDbOzhR-49" value="Test Sheet" style="edgeLabel;html=1;align=center;verticalAlign=middle;resizable=0;points=[];fontColor=none;fontStyle=1;fontSize=13;" vertex="1" connectable="0" parent="qNwU-4RBRCw6TbDbOzhR-13">
          <mxGeometry x="-0.4491" y="-2" relative="1" as="geometry">
            <mxPoint as="offset" />
          </mxGeometry>
        </mxCell>
        <mxCell id="qNwU-4RBRCw6TbDbOzhR-33" style="edgeStyle=orthogonalEdgeStyle;rounded=0;orthogonalLoop=1;jettySize=auto;html=1;exitX=0.5;exitY=0;exitDx=0;exitDy=0;fontColor=none;" edge="1" parent="qNwU-4RBRCw6TbDbOzhR-5" source="qNwU-4RBRCw6TbDbOzhR-29" target="qNwU-4RBRCw6TbDbOzhR-31">
          <mxGeometry relative="1" as="geometry" />
        </mxCell>
        <mxCell id="qNwU-4RBRCw6TbDbOzhR-35" style="edgeStyle=orthogonalEdgeStyle;rounded=0;orthogonalLoop=1;jettySize=auto;html=1;exitX=1;exitY=0.5;exitDx=0;exitDy=0;fontColor=none;" edge="1" parent="qNwU-4RBRCw6TbDbOzhR-5" source="qNwU-4RBRCw6TbDbOzhR-31" target="qNwU-4RBRCw6TbDbOzhR-34">
          <mxGeometry relative="1" as="geometry" />
        </mxCell>
        <mxCell id="qNwU-4RBRCw6TbDbOzhR-43" style="edgeStyle=orthogonalEdgeStyle;rounded=0;orthogonalLoop=1;jettySize=auto;html=1;exitX=1;exitY=0.5;exitDx=0;exitDy=0;fontColor=none;" edge="1" parent="qNwU-4RBRCw6TbDbOzhR-5" source="qNwU-4RBRCw6TbDbOzhR-39" target="qNwU-4RBRCw6TbDbOzhR-42">
          <mxGeometry relative="1" as="geometry" />
        </mxCell>
        <mxCell id="qNwU-4RBRCw6TbDbOzhR-21" value="" style="edgeStyle=orthogonalEdgeStyle;rounded=0;orthogonalLoop=1;jettySize=auto;html=1;fontColor=none;" edge="1" parent="1" source="qNwU-4RBRCw6TbDbOzhR-18" target="qNwU-4RBRCw6TbDbOzhR-20">
          <mxGeometry relative="1" as="geometry" />
        </mxCell>
        <mxCell id="qNwU-4RBRCw6TbDbOzhR-18" value="&lt;h4&gt;selects his/her name and ID&lt;/h4&gt;" style="whiteSpace=wrap;html=1;rounded=1;fontColor=none;" vertex="1" parent="1">
          <mxGeometry x="415" y="190" width="120" height="60" as="geometry" />
        </mxCell>
        <mxCell id="qNwU-4RBRCw6TbDbOzhR-19" value="" style="edgeStyle=orthogonalEdgeStyle;rounded=0;orthogonalLoop=1;jettySize=auto;html=1;fontColor=none;" edge="1" parent="1" source="qNwU-4RBRCw6TbDbOzhR-15" target="qNwU-4RBRCw6TbDbOzhR-18">
          <mxGeometry relative="1" as="geometry" />
        </mxCell>
        <mxCell id="qNwU-4RBRCw6TbDbOzhR-23" value="" style="edgeStyle=orthogonalEdgeStyle;rounded=0;orthogonalLoop=1;jettySize=auto;html=1;fontColor=none;" edge="1" parent="1" source="qNwU-4RBRCw6TbDbOzhR-20" target="qNwU-4RBRCw6TbDbOzhR-22">
          <mxGeometry relative="1" as="geometry" />
        </mxCell>
        <mxCell id="qNwU-4RBRCw6TbDbOzhR-20" value="&lt;h4&gt;reads the&amp;nbsp; test&lt;/h4&gt;" style="whiteSpace=wrap;html=1;rounded=1;fontColor=none;" vertex="1" parent="1">
          <mxGeometry x="615" y="190" width="120" height="60" as="geometry" />
        </mxCell>
        <mxCell id="qNwU-4RBRCw6TbDbOzhR-22" value="&lt;h5&gt;&lt;b&gt;everything&amp;nbsp; is&amp;nbsp; clear&lt;/b&gt;&lt;/h5&gt;" style="rhombus;whiteSpace=wrap;html=1;rounded=1;fontColor=none;" vertex="1" parent="1">
          <mxGeometry x="820" y="170" width="120" height="100" as="geometry" />
        </mxCell>
        <mxCell id="qNwU-4RBRCw6TbDbOzhR-24" value="" style="endArrow=classic;html=1;rounded=0;fontColor=none;entryX=0;entryY=0.5;entryDx=0;entryDy=0;" edge="1" parent="1" source="qNwU-4RBRCw6TbDbOzhR-22" target="qNwU-4RBRCw6TbDbOzhR-28">
          <mxGeometry relative="1" as="geometry">
            <mxPoint x="920" y="200" as="sourcePoint" />
            <mxPoint x="1020" y="190" as="targetPoint" />
          </mxGeometry>
        </mxCell>
        <mxCell id="qNwU-4RBRCw6TbDbOzhR-25" value="YES" style="edgeLabel;resizable=0;html=1;align=center;verticalAlign=middle;fontColor=none;fontStyle=1" connectable="0" vertex="1" parent="qNwU-4RBRCw6TbDbOzhR-24">
          <mxGeometry relative="1" as="geometry" />
        </mxCell>
        <mxCell id="qNwU-4RBRCw6TbDbOzhR-26" value="" style="endArrow=classic;html=1;rounded=0;fontColor=none;exitX=1;exitY=1;exitDx=0;exitDy=0;entryX=0;entryY=0.5;entryDx=0;entryDy=0;" edge="1" parent="1" source="qNwU-4RBRCw6TbDbOzhR-22" target="qNwU-4RBRCw6TbDbOzhR-29">
          <mxGeometry relative="1" as="geometry">
            <mxPoint x="900" y="250" as="sourcePoint" />
            <mxPoint x="1000" y="250" as="targetPoint" />
          </mxGeometry>
        </mxCell>
        <mxCell id="qNwU-4RBRCw6TbDbOzhR-27" value="NO" style="edgeLabel;resizable=0;html=1;align=center;verticalAlign=middle;fontColor=none;fontStyle=1" connectable="0" vertex="1" parent="qNwU-4RBRCw6TbDbOzhR-26">
          <mxGeometry relative="1" as="geometry" />
        </mxCell>
        <mxCell id="qNwU-4RBRCw6TbDbOzhR-8" value="IBS IT system" style="swimlane;startSize=20;horizontal=0;" vertex="1" parent="1">
          <mxGeometry y="420" width="1630" height="190" as="geometry" />
        </mxCell>
        <mxCell id="qNwU-4RBRCw6TbDbOzhR-14" value="&lt;h3&gt;&lt;b&gt;Moodle Database&lt;/b&gt;&lt;/h3&gt;" style="shape=datastore;whiteSpace=wrap;html=1;" vertex="1" parent="qNwU-4RBRCw6TbDbOzhR-8">
          <mxGeometry x="375" y="120" width="230" height="60" as="geometry" />
        </mxCell>
        <mxCell id="qNwU-4RBRCw6TbDbOzhR-47" value="&lt;h2&gt;student documents&lt;/h2&gt;" style="shape=datastore;whiteSpace=wrap;html=1;fontColor=none;fontStyle=1" vertex="1" parent="qNwU-4RBRCw6TbDbOzhR-8">
          <mxGeometry x="630" y="30" width="180" height="60" as="geometry" />
        </mxCell>
        <mxCell id="qNwU-4RBRCw6TbDbOzhR-17" style="edgeStyle=orthogonalEdgeStyle;rounded=0;orthogonalLoop=1;jettySize=auto;html=1;exitX=0;exitY=0.5;exitDx=0;exitDy=0;entryX=0.5;entryY=1;entryDx=0;entryDy=0;dashed=1;fontColor=none;" edge="1" parent="1" source="qNwU-4RBRCw6TbDbOzhR-14" target="qNwU-4RBRCw6TbDbOzhR-15">
          <mxGeometry relative="1" as="geometry" />
        </mxCell>
        <mxCell id="qNwU-4RBRCw6TbDbOzhR-50" value="&lt;h4&gt;Test Template&lt;/h4&gt;" style="edgeLabel;html=1;align=center;verticalAlign=middle;resizable=0;points=[];fontSize=13;fontColor=none;" vertex="1" connectable="0" parent="qNwU-4RBRCw6TbDbOzhR-17">
          <mxGeometry x="0.3574" y="-4" relative="1" as="geometry">
            <mxPoint as="offset" />
          </mxGeometry>
        </mxCell>
        <mxCell id="qNwU-4RBRCw6TbDbOzhR-38" style="edgeStyle=orthogonalEdgeStyle;rounded=0;orthogonalLoop=1;jettySize=auto;html=1;exitX=0;exitY=0.5;exitDx=0;exitDy=0;entryX=1;entryY=0.7;entryDx=0;entryDy=0;fontColor=none;dashed=1;" edge="1" parent="1" source="qNwU-4RBRCw6TbDbOzhR-36" target="qNwU-4RBRCw6TbDbOzhR-14">
          <mxGeometry relative="1" as="geometry" />
        </mxCell>
        <mxCell id="qNwU-4RBRCw6TbDbOzhR-48" style="edgeStyle=orthogonalEdgeStyle;rounded=0;orthogonalLoop=1;jettySize=auto;html=1;exitX=1;exitY=1;exitDx=0;exitDy=0;fontColor=none;dashed=1;" edge="1" parent="1" source="qNwU-4RBRCw6TbDbOzhR-15" target="qNwU-4RBRCw6TbDbOzhR-47">
          <mxGeometry relative="1" as="geometry" />
        </mxCell>
        <mxCell id="qNwU-4RBRCw6TbDbOzhR-51" value="&lt;h4&gt;Own template file&lt;/h4&gt;" style="edgeLabel;html=1;align=center;verticalAlign=middle;resizable=0;points=[];fontSize=13;fontColor=none;" vertex="1" connectable="0" parent="qNwU-4RBRCw6TbDbOzhR-48">
          <mxGeometry x="-0.132" y="1" relative="1" as="geometry">
            <mxPoint as="offset" />
          </mxGeometry>
        </mxCell>
      </root>
    </mxGraphModel>
  </diagram>
</mxfile>
